<svg width="81" height="80" viewBox="0 0 81 80" fill="none" xmlns="http://www.w3.org/2000/svg">
<g clip-path="url(#clip0_165_348)">
<path d="M40.4991 37.2944L76.3591 15.0401C75.2071 14.4 73.9071 14 72.4991 14H8.49892C7.09092 14 5.78691 14.4 4.63891 15.0401L40.4991 37.2944Z" fill="white" fill-opacity="0.6"/>
<path d="M42.608 45.3979C41.964 45.798 41.232 46.002 40.5 46.002C39.768 46.002 39.036 45.798 38.392 45.4019L0.512 21.8916C0.512 21.9276 0.5 21.9636 0.5 21.9956V57.9992C0.5 62.4076 4.088 66 8.5 66H72.5C76.912 66 80.5 62.4076 80.5 57.9992V21.9956C80.5 21.9596 80.488 21.9236 80.488 21.8876L42.608 45.3979Z" fill="white" fill-opacity="0.6"/>
</g>
<defs>
<clipPath id="clip0_165_348">
<rect width="80" height="80" fill="white" transform="translate(0.5)"/>
</clipPath>
</defs>
</svg>
