<svg width="80" height="80" viewBox="0 0 80 80" fill="none" xmlns="http://www.w3.org/2000/svg">
<path fill-rule="evenodd" clip-rule="evenodd" d="M40.0004 6.6667C32.079 6.65864 24.4137 9.47174 18.3782 14.6019C12.3427 19.732 8.33134 26.8439 7.06304 34.663C5.79477 42.482 7.35244 50.497 11.4569 57.272C15.5614 64.047 21.9444 69.1387 29.462 71.635C31.14 71.942 31.7334 70.8983 31.7334 70.0183V64.3503C22.423 66.376 20.4586 59.869 20.4586 59.869C19.8409 57.8523 18.5287 56.1197 16.7549 54.9787C13.7469 52.9323 17.0004 52.9323 17.0004 52.9323C18.0548 53.0813 19.0616 53.468 19.9443 54.0637C20.8271 54.6593 21.5627 55.448 22.0956 56.37C22.5483 57.191 23.1587 57.9143 23.8918 58.499C24.6248 59.0833 25.466 59.5173 26.3672 59.776C27.2683 60.0343 28.2117 60.1123 29.1431 60.0057C30.0745 59.8987 30.9756 59.609 31.7948 59.153C31.9232 57.4697 32.6489 55.8873 33.841 54.692C26.4336 53.853 18.6579 50.9883 18.6579 38.322C18.607 35.0133 19.8305 31.8116 22.0751 29.38C21.0754 26.503 21.1923 23.3556 22.4025 20.5607C22.4025 20.5607 25.2059 19.6603 31.5697 23.9779C37.0344 22.4775 42.8024 22.4775 48.267 23.9779C54.6307 19.6603 57.4137 20.5607 57.4137 20.5607C58.6407 23.326 58.787 26.4509 57.823 29.3186C60.0677 31.7502 61.291 34.952 61.2404 38.2607C61.2404 51.0703 53.444 53.8737 46.016 54.6307C46.8127 55.4313 47.4277 56.3937 47.8197 57.453C48.2114 58.512 48.371 59.643 48.2874 60.7693V69.916C48.2874 71.0007 48.881 71.8397 50.5794 71.5123C58.0114 68.95 64.2987 63.8437 68.3307 57.0953C72.3627 50.3467 73.88 42.3903 72.614 34.6317C71.3484 26.873 67.381 19.8113 61.4134 14.6942C55.4454 9.57704 47.861 6.73377 40.0004 6.6667Z" fill="white"/>
</svg>
