<svg width="80" height="81" viewBox="0 0 80 81" fill="none" xmlns="http://www.w3.org/2000/svg">
<path d="M60 50.2909V57.8909C67.312 59.3589 72 61.6029 72 64.1309C72 68.5549 57.676 72.1309 40 72.1309C22.324 72.1309 8 68.5549 8 64.1309C8 61.6029 12.692 59.3589 20 57.8909V50.2909C8.056 53.0549 0 58.2109 0 64.1309C0 72.9709 17.908 80.1309 40 80.1309C62.092 80.1309 80 72.9709 80 64.1309C80 58.2109 71.944 53.0549 60 50.2909ZM64 24.1309C64 10.8789 53.256 0.13089 40 0.13089C26.744 0.13089 16 10.8789 16 24.1309C16 40.1309 40 68.1309 40 68.1309C40 68.1309 64 40.1309 64 24.1309ZM32 24.1309C32 19.7149 35.584 16.1309 40 16.1309C44.416 16.1309 48 19.7149 48 24.1309C48 28.5469 44.416 32.1309 40 32.1309C35.584 32.1309 32 28.5469 32 24.1309Z" fill="white" fill-opacity="0.6"/>
</svg>
