<svg width="80" height="80" viewBox="0 0 80 80" fill="none" xmlns="http://www.w3.org/2000/svg">
<path fill-rule="evenodd" clip-rule="evenodd" d="M51.6667 3.33334H25.0001C20.4001 3.33334 16.6667 7.06668 16.6667 11.6667V68.3333C16.6667 72.9333 20.4001 76.6667 25.0001 76.6667H51.6667C56.2668 76.6667 60.0001 72.9333 60.0001 68.3333V11.6667C60.0001 7.06668 56.2668 3.33334 51.6667 3.33334ZM38.3334 73.3333C35.5667 73.3333 33.3334 71.1 33.3334 68.3333C33.3334 65.5667 35.5667 63.3333 38.3334 63.3333C41.1001 63.3333 43.3334 65.5667 43.3334 68.3333C43.3334 71.1 41.1001 73.3333 38.3334 73.3333ZM53.3334 60H23.3334V13.3333H53.3334V60Z" fill="#B5BBC0"/>
</svg>
